<?xml version="1.0" encoding="UTF-8" standalone="no"?>
<svg
   xmlns:dc="http://purl.org/dc/elements/1.1/"
   xmlns:cc="http://creativecommons.org/ns#"
   xmlns:rdf="http://www.w3.org/1999/02/22-rdf-syntax-ns#"
   xmlns:svg="http://www.w3.org/2000/svg"
   xmlns="http://www.w3.org/2000/svg"
   xmlns:sodipodi="http://sodipodi.sourceforge.net/DTD/sodipodi-0.dtd"
   xmlns:inkscape="http://www.inkscape.org/namespaces/inkscape"
   width="550.0px"
   height="260.0px"
   viewBox="0 0 550.0 260.0 "
   id="svg2"
   version="1.1"
   inkscape:version="0.91 r13725"
  >
  <defs
     id="defs4"> 
<filter
       style="color-interpolation-filters:sRGB;"
       inkscape:label="Drop Shadow"
       id="filter3443"
        x="-25%"
        y="-25%"
        width="150%"        
        height="150%"        
        >
      <feFlood
         flood-opacity="0.498039"
         flood-color="rgb(0,0,0)"
         result="flood"
         id="feFlood3445" />
      <feComposite
         in="flood"
         in2="SourceGraphic"
         operator="in"
         result="composite1"
         id="feComposite3447" />
      <feGaussianBlur
         in="composite1"
         stdDeviation="3"
         result="blur"
         id="feGaussianBlur3449" />
      <feOffset
         dx="2"
         dy="3"
         result="offset"
         id="feOffset3451" />
      <feComposite
         in="SourceGraphic"
         in2="offset"
         operator="over"
         result="composite2"
         id="feComposite3453" />
    </filter>
    <marker
       inkscape:stockid="Arrow1Lend"
       orient="auto"
       refY="0.0"
       refX="0.0"
       id="Arrow1Lend"
       style="overflow:visible;"
       inkscape:isstock="true">
      <path
         d="M -3.0,0.0 L -3.0,-5.0 L -12.5,0.0 L -3.0,5.0 L -3.0,0.0 z "
         style="fill-rule:evenodd;stroke:#003080;stroke-width:1pt;stroke-opacity:1;fill:#003080;fill-opacity:1"
         transform="scale(0.8) rotate(180) translate(12.5,0)" />
    </marker>    

  </defs>
    <g id="source_a" transform="rotate(0 0.0 30) translate(0.0,30)">
<g transform="scale(1.2222222222222223 0.75) translate(0 0)">
  <path
     style="fill:none;fill-rule:evenodd;stroke:#000000;stroke-width:2px;stroke-linecap:butt;stroke-linejoin:miter;stroke-opacity:1"
     d="M -0.67660398,1.4566587 C 51.393331,1.3820987 103.49025,-3.9934243 155.52767,1.1808467 c 33.34887,0.89417 67.21197,-1.95060293 99.84156,5.535708 44.03188,2.2890288 88.09651,1.698567 131.74849,-3.79605 21.2474,-0.841106 42.51228,0.139269 63.76647,-0.199798"
     id="axisLine"
     inkscape:connector-curvature="0"
     inkscape:label="#path3511" />
</g>
<g transform="translate(547.0 2)">
  <path
     style="fill:none;fill-rule:evenodd;stroke:#000000;stroke-width:1.42857146px;stroke-linecap:butt;stroke-linejoin:miter;stroke-opacity:1"
     d="m -13.085216,-10.419073 c 2.66757,0.133318 4.1293297,2.8477214 6.5645197,3.6415244 2.19618,1.483387 4.27915,3.129365 6.74184,4.165938 3.6572898,1.62997797 0.28555,4.903303 -1.90365,6.045673 -2.08841,1.84505 -3.80877,3.732465 -6.63704,4.785017 -1.8518597,0.870578 -3.6440197,1.8066886 -5.3976897,2.8506076"
     id="arrow_end"
     inkscape:connector-curvature="0"
     inkscape:label="#path3528" />
</g>


<g transform="translate(125.0 0)">
<path
     sodipodi:nodetypes="cccc"
     inkscape:connector-curvature="0"
     id="circle"
     d="m 4.9388474,-19.439462 c 16.0642996,-0.12398 28.5596096,25.2132203 13.6726596,35.64262 -11.0573896,9.63907 -34.34364,12.39205 -40.14488,-4.43275 -5.99947,-18.2070397 12.2740204,-28.34201 25.6703704,-34.96158"
     style="fill:#ffffff;fill-opacity:0.8627451;fill-rule:evenodd;stroke:#000000;stroke-width:1.42857146px;stroke-linecap:butt;stroke-linejoin:miter;stroke-opacity:1"
     inkscape:label="#path3567" />
     
  <text
     y="11"
     x="0"
     style="font-size:28px;font-family:purisa;text-align:center;text-anchor:middle;fill:#000000;"
     xml:space="preserve">A</text>
</g>

<g transform="translate(225.0 0)">
<path
     sodipodi:nodetypes="cccc"
     inkscape:connector-curvature="0"
     id="circle"
     d="m 4.9388474,-19.439462 c 16.0642996,-0.12398 28.5596096,25.2132203 13.6726596,35.64262 -11.0573896,9.63907 -34.34364,12.39205 -40.14488,-4.43275 -5.99947,-18.2070397 12.2740204,-28.34201 25.6703704,-34.96158"
     style="fill:#ffffff;fill-opacity:0.8627451;fill-rule:evenodd;stroke:#000000;stroke-width:1.42857146px;stroke-linecap:butt;stroke-linejoin:miter;stroke-opacity:1"
     inkscape:label="#path3567" />
     
  <text
     y="11"
     x="0"
     style="font-size:28px;font-family:purisa;text-align:center;text-anchor:middle;fill:#000000;"
     xml:space="preserve">B</text>
</g>

<g transform="translate(375.0 0)">
    <path
     sodipodi:nodetypes="ccccc"
     inkscape:connector-curvature="0"
     id="circ3"
     d="M 4.0475415,-21.306002 C -11.703304,-26.547792 -23.641751,-7.9231854 -22.516473,6.1088129 -20.059942,26.830243 12.722358,33.867273 22.337406,14.863588 27.656584,4.0579388 23.204578,-8.3517124 15.784624,-16.859919 c -1.822,-3.127279 -5.336267,-5.723574 -9.3972065,-5.54123"
     style="fill:#ffffff;fill-opacity:0.8627451;fill-rule:evenodd;stroke:#000000;stroke-width:1.42857158px;stroke-linecap:butt;stroke-linejoin:miter;stroke-opacity:1"
     inkscape:label="#path3571" />
  <text
     y="11"
     x="0"
     style="font-size:28px;font-family:purisa;text-align:center;text-anchor:middle;fill:#000000;"
     xml:space="preserve">C</text>
</g>

<g id="error">
    <path
       inkscape:connector-curvature="0"
       d="m 493.0,-18 -34,36"
       style="stroke:#000000;stroke-width:3px;" />
    <path
       style="stroke:#000000;stroke-width:3px;"
       d="m 461.0,-18 36,36"
       />
</g>
</g><g transform="translate(0 90.0)">
<g transform="scale(1.1869565217391305 1) translate(2 0)">
<path
     style="fill:#ffffff;fill-rule:evenodd;stroke:#000000;stroke-width:1.42857146px;stroke-linecap:butt;stroke-linejoin:miter;stroke-opacity:1"
     d="M 3.6131775,2.4809559 C 7.7262916,27.136376 -4.8390181,67.388756 10.311791,81.793736 c 56.57601,-7.35809 113.842299,-2.82956 170.815959,-4.56434 48.9116,1.31804 98.12281,2.30369 146.89949,0.25237 36.73272,-6.08907 74.34343,-4.60865 110.81369,1.7655 26.17801,-6.87142 7.26874,-47.02276 10.85636,-67.94864 C 435.2653,-11.614984 389.13054,8.5049456 362.01772,0.90526594 300.94038,0.67314594 239.26649,2.7131859 178.67384,0.60705594 118.08119,-1.4990741 86.699905,6.8117156 57.753682,4.3549359 28.807462,1.8981559 17.816805,1.4648659 0.01403178,-4.669534"
     id="operator_box"
     inkscape:connector-curvature="0"
     sodipodi:nodetypes="ccccccczzc"
     inkscape:label="#path3549" />
</g>
      <text
         x="275.0"
         y="40.0"
         style="font-size:24px;font-family:purisa;text-align:center;text-anchor:middle;fill:#000000;"
         xml:space="preserve">foo</text>

<g id="operator_foo" transform="rotate(0 0.0 120) translate(0.0,120)">
<g transform="scale(1.2222222222222223 0.75) translate(0 0)">
  <path
     style="fill:none;fill-rule:evenodd;stroke:#000000;stroke-width:2px;stroke-linecap:butt;stroke-linejoin:miter;stroke-opacity:1"
     d="M -0.67660398,1.4566587 C 51.393331,1.3820987 103.49025,-3.9934243 155.52767,1.1808467 c 33.34887,0.89417 67.21197,-1.95060293 99.84156,5.535708 44.03188,2.2890288 88.09651,1.698567 131.74849,-3.79605 21.2474,-0.841106 42.51228,0.139269 63.76647,-0.199798"
     id="axisLine"
     inkscape:connector-curvature="0"
     inkscape:label="#path3511" />
</g>
<g transform="translate(547.0 2)">
  <path
     style="fill:none;fill-rule:evenodd;stroke:#000000;stroke-width:1.42857146px;stroke-linecap:butt;stroke-linejoin:miter;stroke-opacity:1"
     d="m -13.085216,-10.419073 c 2.66757,0.133318 4.1293297,2.8477214 6.5645197,3.6415244 2.19618,1.483387 4.27915,3.129365 6.74184,4.165938 3.6572898,1.62997797 0.28555,4.903303 -1.90365,6.045673 -2.08841,1.84505 -3.80877,3.732465 -6.63704,4.785017 -1.8518597,0.870578 -3.6440197,1.8066886 -5.3976897,2.8506076"
     id="arrow_end"
     inkscape:connector-curvature="0"
     inkscape:label="#path3528" />
</g>


<g transform="translate(125.0 0)">
<path
     sodipodi:nodetypes="cccc"
     inkscape:connector-curvature="0"
     id="circle"
     d="m 4.9388474,-19.439462 c 16.0642996,-0.12398 28.5596096,25.2132203 13.6726596,35.64262 -11.0573896,9.63907 -34.34364,12.39205 -40.14488,-4.43275 -5.99947,-18.2070397 12.2740204,-28.34201 25.6703704,-34.96158"
     style="fill:#ffffff;fill-opacity:0.8627451;fill-rule:evenodd;stroke:#000000;stroke-width:1.42857146px;stroke-linecap:butt;stroke-linejoin:miter;stroke-opacity:1"
     inkscape:label="#path3567" />
     
  <text
     y="11"
     x="0"
     style="font-size:28px;font-family:purisa;text-align:center;text-anchor:middle;fill:#000000;"
     xml:space="preserve">1</text>
</g>

<g transform="translate(225.0 0)">
<path
     sodipodi:nodetypes="cccc"
     inkscape:connector-curvature="0"
     id="circle"
     d="m 4.9388474,-19.439462 c 16.0642996,-0.12398 28.5596096,25.2132203 13.6726596,35.64262 -11.0573896,9.63907 -34.34364,12.39205 -40.14488,-4.43275 -5.99947,-18.2070397 12.2740204,-28.34201 25.6703704,-34.96158"
     style="fill:#ffffff;fill-opacity:0.8627451;fill-rule:evenodd;stroke:#000000;stroke-width:1.42857146px;stroke-linecap:butt;stroke-linejoin:miter;stroke-opacity:1"
     inkscape:label="#path3567" />
     
  <text
     y="11"
     x="0"
     style="font-size:28px;font-family:purisa;text-align:center;text-anchor:middle;fill:#000000;"
     xml:space="preserve">2</text>
</g>

<g transform="translate(375.0 0)">
<path
     sodipodi:nodetypes="cccc"
     inkscape:connector-curvature="0"
     id="circle"
     d="m 4.9388474,-19.439462 c 16.0642996,-0.12398 28.5596096,25.2132203 13.6726596,35.64262 -11.0573896,9.63907 -34.34364,12.39205 -40.14488,-4.43275 -5.99947,-18.2070397 12.2740204,-28.34201 25.6703704,-34.96158"
     style="fill:#ffffff;fill-opacity:0.8627451;fill-rule:evenodd;stroke:#000000;stroke-width:1.42857146px;stroke-linecap:butt;stroke-linejoin:miter;stroke-opacity:1"
     inkscape:label="#path3567" />
     
  <text
     y="11"
     x="0"
     style="font-size:28px;font-family:purisa;text-align:center;text-anchor:middle;fill:#000000;"
     xml:space="preserve">3</text>
</g>

<g>
   <path d="m 475.0,-12 -1,32"
       style="fill:none;fill-rule:evenodd;stroke:#000000;stroke-width:4px;" />
</g>
</g></g>
 </svg>
